<svg xmlns="http://www.w3.org/2000/svg" xmlns:svg="http://www.w3.org/2000/svg" id="svg8" width="711.147" height="691.954" version="1.1" viewBox="0 0 188.158 183.08"><metadata id="metadata5"/><g id="layer1" transform="translate(-8.9535418,-37.347473)"><path style="opacity:.8;fill:#fff;fill-opacity:1;stroke:none;stroke-width:11.10909367;stroke-linecap:round;stroke-linejoin:round;stroke-miterlimit:4;stroke-dasharray:none;stroke-opacity:1" id="rect816" d="m 22.613012,70.490036 c -3.812539,0 -6.88184,3.069301 -6.88184,6.88184 V 180.40269 c 0,3.81254 3.069301,6.88184 6.88184,6.88184 H 183.45182 c 3.81254,0 6.88184,-3.0693 6.88184,-6.88184 V 77.371876 c 0,-3.812539 -3.0693,-6.88184 -6.88184,-6.88184 z m 5.407083,10.420611 H 178.0442 v 4.719436 H 28.020095 Z m 0,13.488405 H 178.0442 v 4.7189 H 28.020095 Z m 0,13.488408 H 178.0442 v 4.7189 H 28.020095 Z m 0,13.4884 H 178.0442 v 4.7189 H 28.020095 Z m 0,13.48841 H 178.0442 v 4.7189 H 28.020095 Z m 0,13.4884 H 178.0442 v 4.7189 H 28.020095 Z m 0,13.48841 h 67.835581 v 4.7189 H 28.020095 Z"/></g></svg>