<svg xmlns="http://www.w3.org/2000/svg" xmlns:svg="http://www.w3.org/2000/svg" id="svg8" width="711.147" height="691.954" version="1.1" viewBox="0 0 188.158 183.08"><metadata id="metadata5"/><g id="layer1" transform="translate(-8.9535418,-37.347473)"><path style="opacity:.8;fill:#fff;fill-opacity:1;stroke:none;stroke-width:11.38032436;stroke-linecap:round;stroke-linejoin:round;stroke-miterlimit:4;stroke-dasharray:none;stroke-opacity:1" id="path847" d="m 160.98209,42.549659 -11.69929,11.699295 -6.68178,6.681778 -110.760551,110.760538 -9.115324,25.91784 -6.195984,17.6158 17.749978,-6.06181 26.114907,-8.91824 110.760544,-110.760555 6.68179,-6.681774 11.69929,-11.699295 z m -10.68426,12.714328 26.52351,26.523513 -6.68177,6.681774 -26.52352,-26.523509 z m -11.78885,14.180391 2.03038,2.030376 -104.457708,104.457706 -2.030376,-2.03037 z m 4.42039,4.420377 2.03037,2.030376 -104.457711,104.457709 -2.030376,-2.03038 z m 4.42037,4.420383 2.03038,2.030376 -104.457708,104.457706 -2.030376,-2.03037 z m 4.42039,4.42038 2.03037,2.030376 L 49.342792,189.1936 47.312416,187.16322 Z m 4.42037,4.420379 2.03038,2.03038 -104.457709,104.457703 -2.030376,-2.03037 z m 4.42039,4.420384 2.03006,2.030078 -104.457706,104.457701 -2.030069,-2.03008 z m -128.818511,83.358789 1.965915,1.96591 1.805224,1.80523 2.125064,2.12507 1.805224,1.80521 2.12476,2.12476 1.805535,1.80554 2.12475,2.12474 1.805228,1.80523 2.125057,2.12506 1.805228,1.80523 2.125066,2.12506 1.804914,1.80492 1.96592,1.96593 -23.683297,8.08797 -9.971453,-9.97146 z"/></g></svg>