<svg xmlns="http://www.w3.org/2000/svg" xmlns:svg="http://www.w3.org/2000/svg" id="svg8" width="407.507" height="407.505" version="1.1" viewBox="0 0 118.603 118.602"><metadata id="metadata5"/><g id="layer1" transform="translate(-12.136306,-51.356713)"><path style="opacity:.8;fill:#fff;fill-opacity:1;stroke:none;stroke-width:6.21454573;stroke-miterlimit:4;stroke-dasharray:none;stroke-opacity:1" id="path4605" d="M 203.75391 2.5253906 C 92.618729 2.5248752 2.5248787 92.618746 2.5253906 203.75391 C 2.5260641 314.88825 92.619574 404.97903 203.75391 404.97852 C 314.88825 404.97903 404.98173 314.88825 404.98242 203.75391 C 404.98294 92.618746 314.88907 2.5248752 203.75391 2.5253906 z M 203.75391 36.871094 C 295.92067 36.870666 370.63715 111.58715 370.63672 203.75391 C 370.63617 295.91997 295.91997 370.6352 203.75391 370.63477 C 111.58785 370.6352 36.871651 295.91997 36.871094 203.75391 C 36.870667 111.58715 111.58715 36.870666 203.75391 36.871094 z" transform="matrix(0.29104432,0,0,0.29104432,12.136306,51.356713)"/></g></svg>